<?xml version="1.0" encoding="utf-8"?>
<!-- Generator: Adobe Illustrator 16.0.0, SVG Export Plug-In . SVG Version: 6.00 Build 0)  -->
<!DOCTYPE svg PUBLIC "-//W3C//DTD SVG 1.1//EN" "http://www.w3.org/Graphics/SVG/1.1/DTD/svg11.dtd">
<svg version="1.1" id="Layer_1" xmlns="http://www.w3.org/2000/svg" xmlns:xlink="http://www.w3.org/1999/xlink" x="0px" y="0px"
	 width="20px" height="20px" viewBox="0 0 20 20" enable-background="new 0 0 20 20" xml:space="preserve">
<path fill="#FFFFFF" d="M19.641,17.219l-3.877-3.878c-0.175-0.175-0.412-0.272-0.661-0.272h-0.634
	c1.073-1.372,1.711-3.1,1.711-4.979C16.18,3.621,12.559,0,8.09,0C3.621,0,0,3.621,0,8.09c0,4.469,3.621,8.09,8.09,8.09
	c1.878,0,3.605-0.638,4.979-1.711v0.634c0,0.249,0.097,0.486,0.271,0.661l3.879,3.877c0.365,0.366,0.956,0.366,1.317,0l1.102-1.101
	C20.004,18.175,20.004,17.584,19.641,17.219z M8.09,13.068c-2.75,0-4.979-2.225-4.979-4.979c0-2.75,2.225-4.979,4.979-4.979
	c2.75,0,4.979,2.225,4.979,4.979C13.068,10.839,10.844,13.068,8.09,13.068z"/>
</svg>
