<?xml version="1.0" encoding="utf-8"?>
<!-- Generator: Adobe Illustrator 16.0.0, SVG Export Plug-In . SVG Version: 6.00 Build 0)  -->
<!DOCTYPE svg PUBLIC "-//W3C//DTD SVG 1.1//EN" "http://www.w3.org/Graphics/SVG/1.1/DTD/svg11.dtd">
<svg version="1.1" id="Layer_1" xmlns="http://www.w3.org/2000/svg" xmlns:xlink="http://www.w3.org/1999/xlink" x="0px" y="0px"
	 width="20px" height="20px" viewBox="0 0 20 20" enable-background="new 0 0 20 20" xml:space="preserve">
<path d="M19.642,17.219l-3.878-3.878c-0.176-0.176-0.413-0.272-0.661-0.272h-0.634c1.072-1.374,1.711-3.1,1.711-4.979
	C16.18,3.621,12.559,0,8.089,0C3.621,0,0,3.621,0,8.089c0,4.469,3.621,8.09,8.089,8.09c1.879,0,3.605-0.639,4.979-1.712v0.635
	c0,0.248,0.097,0.485,0.272,0.661l3.878,3.877c0.365,0.366,0.956,0.366,1.317,0l1.102-1.101
	C20.004,18.176,20.004,17.584,19.642,17.219z M8.089,13.068c-2.75,0-4.978-2.225-4.978-4.979c0-2.75,2.225-4.978,4.978-4.978
	c2.75,0,4.979,2.225,4.979,4.978C13.068,10.84,10.844,13.068,8.089,13.068z"/>
</svg>
