<?xml version="1.0" encoding="utf-8"?>
<!-- Generator: Adobe Illustrator 16.0.0, SVG Export Plug-In . SVG Version: 6.00 Build 0)  -->
<!DOCTYPE svg PUBLIC "-//W3C//DTD SVG 1.1//EN" "http://www.w3.org/Graphics/SVG/1.1/DTD/svg11.dtd">
<svg version="1.1" id="Layer_1" xmlns="http://www.w3.org/2000/svg" xmlns:xlink="http://www.w3.org/1999/xlink" x="0px" y="0px"
	 width="232px" height="50px" viewBox="0 0 232 50" enable-background="new 0 0 232 50" xml:space="preserve">
<path fill="#FFFFFF" d="M18.781,48.321c-7.076,0-12.35-3.641-12.35-12.35V22.023H0v-7.554C7.076,12.633,10.037,6.543,10.378,1.27
	h7.349v11.976h8.572v8.778h-8.572v12.146c0,3.64,1.836,4.897,4.763,4.897h4.15v9.255H18.781z M45.079,48.73
	c4.014,0,8.642-1.736,11.159-4.832v4.423h13.234v-7.519h-3.367V13.245H50.115v7.654h4.558v13.27c0,1.054-0.884,5.512-6.872,5.512
	c-3.846,0-4.56-2.314-4.56-5.241V13.245H31.471v21.673C31.471,40.326,33.92,48.73,45.079,48.73z M73.693,48.321h19.359v-7.519
	h-3.948V27.704c0-1.905,1.632-5.817,6.6-5.817c4.015,0,4.832,2.45,4.832,5.341v13.574h-3.913v7.519h19.221v-7.519h-4.015V27.704
	c0-1.905,1.462-5.817,6.464-5.817c4.049,0,5.035,2.45,5.035,5.341v13.574h-3.843v7.519h19.121v-7.519h-3.913V28.555
	c0-7.213-2.722-15.718-13.472-15.718c-5.307,0-9.662,2.517-11.5,5.614c-2.314-3.505-5.817-5.614-11.057-5.614
	c-4.151,0-8.711,1.769-11.159,5.138v-4.729H72.978v7.654h4.695v19.903h-3.98L73.693,48.321z M163.171,48.73
	c9.798,0,15.071-7.349,15.071-18.372c0-10.582-4.899-17.521-14.868-17.521c-3.504,0-7.008,1.327-9.118,2.959V1.27h-16.195v7.587
	h4.694v39.464h10.786v-3.096c2.686,2.283,6.103,3.527,9.627,3.505H163.171z M160.719,40.189c-3.436,0-6.805-2.179-6.805-9.05
	c0-8.268,3.982-9.73,6.737-9.73c3.198,0,6.021,2.586,6.021,9.017C166.673,39.681,162.522,39.987,160.719,40.189z M180.351,48.321
	h19.494v-7.519h-4.15V1.27h-16.059v7.587h4.694v31.946h-3.979V48.321z M204.097,48.321h19.154v-7.519h-3.912v-9.798
	c0-6.667,4.696-8.129,8.269-8.129h4.763V12.837h-3.845c-4.355,0-8.37,2.109-10.174,5.476v-5.068h-14.595v7.654h4.219v19.903h-3.879
	V48.321z"/>
</svg>
