<?xml version="1.0" encoding="utf-8"?>
<!-- Generator: Adobe Illustrator 16.0.0, SVG Export Plug-In . SVG Version: 6.00 Build 0)  -->
<!DOCTYPE svg PUBLIC "-//W3C//DTD SVG 1.1//EN" "http://www.w3.org/Graphics/SVG/1.1/DTD/svg11.dtd">
<svg version="1.1" id="Layer_1" xmlns="http://www.w3.org/2000/svg" xmlns:xlink="http://www.w3.org/1999/xlink" x="0px" y="0px"
	 width="612px" height="792px" viewBox="0 0 612 792" enable-background="new 0 0 612 792" xml:space="preserve">
<path fill="#FFFFFF" d="M49.458,457.309c-18.636,0-32.523-9.586-32.523-32.522v-36.733H0v-19.893
	c18.635-4.836,26.43-20.873,27.328-34.76h19.352v31.537h22.576v23.116H46.679v31.984c0,9.588,4.839,12.9,12.542,12.9h10.932v24.371
	H49.458z M118.713,458.384c10.57,0,22.757-4.568,29.386-12.723v11.647h34.852v-19.801h-8.865v-72.57h-42.111v20.158h12.004v34.942
	c0,2.779-2.329,14.516-18.097,14.516c-10.126,0-12.007-6.094-12.007-13.8v-55.815H82.876v57.073
	C82.876,436.254,89.325,458.384,118.713,458.384z M194.066,457.309h50.979v-19.801h-10.398v-34.493
	c0-5.019,4.301-15.319,17.382-15.319c10.57,0,12.722,6.454,12.722,14.067v35.747H254.45v19.799h50.617v-19.801h-10.576v-34.493
	c0-5.019,3.853-15.319,17.022-15.319c10.662,0,13.261,6.454,13.261,14.067v35.747h-10.118v19.799h50.354v-19.801h-10.306v-32.254
	c0-18.995-7.167-41.392-35.479-41.392c-13.976,0-25.444,6.628-30.284,14.782c-6.093-9.229-15.319-14.782-29.117-14.782
	c-10.933,0-22.94,4.657-29.388,13.531v-12.455h-38.254v20.158h12.364v52.413h-10.482L194.066,457.309z M429.698,458.384
	c25.803,0,39.69-19.351,39.69-48.381c0-27.863-12.901-46.14-39.152-46.14c-9.228,0-18.456,3.494-24.011,7.794V333.4h-42.652v19.98
	h12.364v103.928h28.402v-8.153c7.073,6.014,16.07,9.288,25.354,9.229H429.698z M423.244,435.893c-9.048,0-17.92-5.734-17.92-23.831
	c0-21.774,10.485-25.624,17.741-25.624c8.421,0,15.856,6.809,15.856,23.743C438.922,434.553,427.992,435.359,423.244,435.893z
	 M474.939,457.307h51.339v-19.799h-10.93V333.4h-42.29v19.98h12.364v84.127h-10.483V457.307z M537.479,457.307h50.44v-19.799
	h-10.303v-25.8c0-17.558,12.364-21.411,21.773-21.411h12.543v-26.434h-10.126c-11.469,0-22.041,5.554-26.789,14.423v-13.349H536.58
	v20.158h11.109v52.413h-10.211V457.307z"/>
</svg>
