<svg xmlns="http://www.w3.org/2000/svg" viewBox="0 0 787 161"><path d="M63.6,159.34c-23.965,0-41.823-12.328-41.823-41.823V70.281H0V44.7C23.964,38.481,33.988,17.859,35.142,0H60.027V40.555H89.059V70.281H60.027v41.13C60.027,123.74,66.25,128,76.156,128H90.214V159.34Zm89.059,1.382c13.593,0,29.264-5.875,37.789-16.36V159.34h44.817V133.877h-11.4V40.555H169.712V66.477h15.436v44.934c0,3.574-2.994,18.666-23.272,18.666-13.021,0-15.44-7.836-15.44-17.746V40.555H106.574v73.393C106.574,132.264,114.867,160.722,152.659,160.722Zm96.9-1.382h65.557V133.877H301.745V89.521c0-6.454,5.531-19.7,22.352-19.7,13.593,0,16.36,8.3,16.36,18.09v45.968H327.209V159.34H392.3V133.877h-13.6V89.521c0-6.454,4.955-19.7,21.89-19.7,13.711,0,17.053,8.3,17.053,18.09v45.968H404.632V159.34h64.751V133.877H456.131V92.4c0-24.426-9.217-53.228-45.624-53.228-17.972,0-32.72,8.524-38.943,19.009-7.835-11.867-19.7-19.009-37.443-19.009-14.059,0-29.5,5.988-37.792,17.4V40.555H247.136V66.477h15.9v67.4h-13.48Zm303.01,1.382c33.181,0,51.04-24.884,51.04-62.215,0-35.831-16.59-59.333-50.347-59.333-11.867,0-23.734,4.493-30.877,10.023V0H467.536V25.694h15.9V159.34h36.524V148.855A49.841,49.841,0,0,0,552.564,160.722ZM544.27,131.8c-11.635,0-23.044-7.374-23.044-30.646,0-28,13.483-32.95,22.814-32.95,10.829,0,20.391,8.755,20.391,30.531C564.431,130.077,550.376,131.114,544.27,131.8Zm66.477,27.537h66.019V133.877H662.711V0H608.328V25.694h15.9V133.877H610.747Zm80.422,0h64.864V133.877H742.784V100.7c0-22.579,15.9-27.534,28-27.534h16.129V39.174H773.892c-14.748,0-28.344,7.142-34.45,18.547V40.555H690.014V66.477H704.3v67.4H691.169Z"/></svg>