<?xml version="1.0" encoding="utf-8"?>
<!-- Generator: Adobe Illustrator 16.0.0, SVG Export Plug-In . SVG Version: 6.00 Build 0)  -->
<!DOCTYPE svg PUBLIC "-//W3C//DTD SVG 1.1//EN" "http://www.w3.org/Graphics/SVG/1.1/DTD/svg11.dtd">
<svg version="1.1" id="Layer_1" xmlns="http://www.w3.org/2000/svg" xmlns:xlink="http://www.w3.org/1999/xlink" x="0px" y="0px"
	 width="2500px" height="518px" viewBox="0 0 2500 518" enable-background="new 0 0 2500 518" xml:space="preserve">
<path fill="#FFFFFF" d="M2031.659,415.514l0.112-415.426h-43.703c0,0-72.601,26.258-124.888,31.842v78.471h33.015
	c10.611,0,15.069,4.532,15.225,14.447v290.669c0,10.24-6.022,15.855-15.763,16.49c-8.336,0.557-27.024,1.761-27.024,1.761v78.482
	h205.836v-78.482c0,0-18.715-1.208-27.035-1.761C2037.669,431.369,2031.659,425.754,2031.659,415.514z M2447.72,209.326
	c-4.013-87.542-122.573-91.571-184.543-32.434l-11.315-33.897h-143.286v80.229l30.046-0.042c10.654,0,14.59,4.52,14.733,14.431
	v177.906c0,10.24-6.033,15.855-15.774,16.49c-8.344,0.557-25.131,1.745-25.131,1.745v78.498h201.753v-78.498
	c0,0-16.688-1.196-25.004-1.745c-9.757-0.635-15.798-6.242-15.798-16.49l-0.046-120.623c0-22.608,5.182-60.336,45.077-69.988
	c4.919,37.729,41.366,48.998,59.156,48.998C2422.492,273.896,2447.72,240.278,2447.72,209.326L2447.72,209.326z M1687.58,138.083
	c-30.553,1.339-62.786,13.03-86.191,33.375V0.088h-43.251c0,0-70.716,25.124-125.464,31.842l-1.784,78.471l34.602,0.05
	c10.623,0,15.201,4.524,15.344,14.451v387.392l98.894-0.097l14.145-31.792c3.015,1.695,48.398,44.347,120.855,35.816
	c91.227-10.754,139.141-82.987,139.141-192.581C1853.873,266.141,1836.242,131.586,1687.58,138.083L1687.58,138.083z
	 M1669.283,426.605c-16.807,1.234-47.902-1.587-67.898-36.684v-51.416l0.016-0.031h-0.016v-59.451
	c0-25.7,23.746-48.262,60.483-49.624c37.198-1.378,70.144,24.017,70.144,95.743C1732.012,421.907,1689.565,425.096,1669.283,426.605
	L1669.283,426.605z M1402.797,415.827l0.008-112.013c0-39.914-0.479-81.172-26.904-114.849
	c-24.202-30.816-64.354-53.417-125.316-50.484c-40.488,1.951-83.673,20.766-107.516,52.988l-3.758,4.745l-2.287-2.748
	c-24.509-35.395-63.642-57.914-124.598-54.985c-40.499,1.951-83.685,20.766-107.527,52.988l-3.58-48.107H751.923v80.244
	l34.381,0.507c10.634,0,15.119,4.524,15.267,14.447l0.004,157.028v20.235c0,10.244-6.025,15.863-15.759,16.506
	c-8.34,0.549-25.228,1.741-25.228,1.741v78.479l202.012,0.073v-78.549c0,0-15.917-1.126-25.236-1.741
	c-9.74-0.666-15.746-6.258-15.746-16.506c0,0,0.162-100.228,0.162-120.302c0-20.043,16.587-61.18,69.249-61.18
	c42.484,0,51.188,25.89,51.188,56.022c0,30.119,0.046,125.476,0.046,125.476c0,10.244-6.014,15.848-15.747,16.49
	c-8.339,0.561-25.231,1.769-25.231,1.769v78.452h201.799v-78.479c0,0-15.909-1.126-25.235-1.741
	c-9.737-0.666-15.662-6.258-15.662-16.506h-0.302c0,0,0.174-100.228,0.174-120.302c0-20.043,14.788-61.18,67.462-61.18
	c42.48,0,53.111,25.89,53.111,56.022v105.221l-0.023,20.247c0,10.244-6.033,15.852-15.751,16.486
	c-8.348,0.564-25.235,1.769-25.235,1.769v78.456h202.062v-78.472c0,0-15.914-1.126-25.225-1.741
	C1408.714,431.667,1402.797,426.071,1402.797,415.827z M686.314,416.594V143.381H518.428v80.221l32.346,0.008
	c10.649,0,15.116,4.528,15.259,14.446l-0.166,124.632c0,12.214-8.805,58.097-69.974,59.245
	c-41.679,0.802-50.444-23.78-50.444-56.018V143.381H321.822v228.893c0,57.918,26.451,149.032,149.868,145.7
	c40.522-1.114,86.938-21.497,111.061-51.377l1.01,46.029h137.764v-78.479c0,0-11.142-0.87-19.485-1.424
	C692.298,432.085,686.315,426.853,686.314,416.594L686.314,416.594z M228.656,425.691c-41.021,1.053-48.955-28.212-49.307-49.458
	V228.811h95.6v-85.438h-95.216V16.388h-75.07c-1.231,0-3.382,1.064-3.684,3.754C96.574,59.244,77.867,127.89,0.154,155.309v73.502
	h59.157v155.181c0,56.107,34.992,135.813,146.598,133.937c37.663-0.619,79.5-16.064,88.762-29.377l-24.644-71.528
	C260.483,421.458,242.279,425.332,228.656,425.691L228.656,425.691z"/>
</svg>
