<?xml version="1.0" encoding="utf-8"?>
<!-- Generator: Adobe Illustrator 16.0.0, SVG Export Plug-In . SVG Version: 6.00 Build 0)  -->
<!DOCTYPE svg PUBLIC "-//W3C//DTD SVG 1.1//EN" "http://www.w3.org/Graphics/SVG/1.1/DTD/svg11.dtd">
<svg version="1.1" id="Layer_1" focusable="false" xmlns="http://www.w3.org/2000/svg" xmlns:xlink="http://www.w3.org/1999/xlink"
	 x="0px" y="0px" width="232px" height="50px" viewBox="0 0 232 50" enable-background="new 0 0 232 50" xml:space="preserve">
<path d="M140.316,43.232l-9.736-9.736c-0.439-0.439-1.035-0.684-1.66-0.684h-1.592c2.695-3.447,4.297-7.783,4.297-12.5
	C131.625,9.092,122.533,0,111.312,0S91,9.092,91,20.312s9.092,20.312,20.312,20.312c4.717,0,9.053-1.602,12.5-4.297v1.592
	c0,0.625,0.244,1.221,0.684,1.66l9.736,9.736c0.918,0.918,2.402,0.918,3.311,0l2.764-2.764
	C141.225,45.635,141.225,44.15,140.316,43.232z M111.312,32.812c-6.904,0-12.5-5.586-12.5-12.5c0-6.904,5.586-12.5,12.5-12.5
	c6.904,0,12.5,5.586,12.5,12.5C123.812,27.217,118.227,32.812,111.312,32.812z"/>
</svg>
